<?xml version="1.0" encoding="utf-8"?>
<!-- Generator: Adobe Illustrator 24.1.0, SVG Export Plug-In . SVG Version: 6.00 Build 0)  -->
<svg version="1.1" id="Layer_1" xmlns="http://www.w3.org/2000/svg" xmlns:xlink="http://www.w3.org/1999/xlink" x="0px" y="0px"
	 viewBox="0 0 124.4 39.8" style="enable-background:new 0 0 124.4 39.8;" xml:space="preserve">
<style type="text/css">
	.st0{fill:url(#SVGID_1_);}
	.st1{fill:url(#SVGID_2_);}
	.st2{fill:#FFFFFF;}
</style>
<g>
	<g>
		<linearGradient id="SVGID_1_" gradientUnits="userSpaceOnUse" x1="41.5063" y1="38.2688" x2="16.9167" y2="5.7291">
			<stop  offset="0" style="stop-color:#00AEEF"/>
			<stop  offset="0.9989" style="stop-color:#A1248F"/>
		</linearGradient>
		<path class="st0" d="M31.7,26c0.9-1.8,1.5-3.9,1.5-6.1c0-7.4-6-13.5-13.5-13.5c-1.7,0-3.4,0.3-4.9,0.9l4.3,3.8c0.2,0,0.4,0,0.5,0
			c4.9,0,8.9,4,8.9,8.9c0,2.1-0.7,4-1.9,5.5l-4.3-0.7l6.9,6.1l10.1,8.9L31.7,26z"/>
		<linearGradient id="SVGID_2_" gradientUnits="userSpaceOnUse" x1="-2.1724" y1="1.1446" x2="21.896" y2="33.4121">
			<stop  offset="0" style="stop-color:#00AEEF"/>
			<stop  offset="0.9989" style="stop-color:#A1248F"/>
		</linearGradient>
		<path class="st1" d="M19.8,28.7c-4.9,0-8.9-4-8.9-8.9c0-2.1,0.7-4,1.9-5.5l4.3,0.7l-6.9-6.1L0,0l7.7,13.8
			c-0.9,1.8-1.5,3.9-1.5,6.1c0,7.4,6,13.5,13.5,13.5c1.7,0,3.4-0.3,4.9-0.9l-4.3-3.8C20.1,28.7,20,28.7,19.8,28.7z"/>
	</g>
	<g>
		<path class="st2" d="M105.8,21.4l-5.3-9.2h2.8l3.7,6.5l3.7-6.5h2.8l-5.3,9.2v7h-2.5V21.4z"/>
		<g>
			<path class="st2" d="M124,14.6l-2,1.2c-0.4-0.6-0.7-1.1-1.1-1.3c-0.4-0.2-0.8-0.3-1.4-0.3c-0.7,0-1.2,0.2-1.7,0.6
				c-0.4,0.4-0.7,0.9-0.7,1.4c0,0.8,0.6,1.4,1.8,1.9l1.6,0.7c1.3,0.5,2.3,1.2,2.9,1.9c0.6,0.8,0.9,1.7,0.9,2.8
				c0,1.5-0.5,2.7-1.5,3.7c-1,1-2.2,1.5-3.7,1.5c-1.4,0-2.6-0.4-3.5-1.3c-0.9-0.8-1.5-2-1.7-3.5l2.5-0.5c0.1,1,0.3,1.6,0.6,2
				c0.5,0.7,1.2,1.1,2.2,1.1c0.8,0,1.4-0.3,1.9-0.8c0.5-0.5,0.8-1.2,0.8-1.9c0-0.3,0-0.6-0.1-0.9c-0.1-0.3-0.2-0.5-0.4-0.7
				c-0.2-0.2-0.4-0.4-0.7-0.6c-0.3-0.2-0.6-0.4-1.1-0.6l-1.6-0.7c-2.2-0.9-3.3-2.3-3.3-4.1c0-1.2,0.5-2.2,1.4-3.1
				c0.9-0.8,2.1-1.2,3.5-1.2C121.5,11.8,122.9,12.8,124,14.6z"/>
			<path class="st2" d="M77.6,24.3L75.3,22l-3.1,0l6.7,6.7l3.1,0L79.3,26c1.5-1.6,2.3-3.5,2.3-5.6c0-2.7-1-4.9-2.9-6.5
				c-1.6-1.4-3.5-2.1-5.5-2.1c-2.3,0-4.2,0.8-5.9,2.4c-1.7,1.6-2.6,3.7-2.6,6.1c0,2.5,0.9,4.5,2.7,6.1c1.7,1.5,3.6,2.2,5.7,2.2
				c0.8,0,1.6-0.1,2.4-0.3l-2-2c-0.1,0-0.3,0-0.5,0c-1.6,0-2.9-0.6-4.2-1.7c-1.2-1.1-1.7-2.5-1.7-4.3c0-1.8,0.6-3.3,1.7-4.4
				c1.1-1.2,2.5-1.8,4.3-1.8c1.7,0,3.2,0.6,4.3,1.8c1.2,1.2,1.7,2.6,1.7,4.4C79.2,21.9,78.7,23.2,77.6,24.3L77.6,24.3z"/>
			<polygon class="st2" points="56.5,11.1 48.4,28.4 51.1,28.4 56.4,16.6 61.5,28.4 64.2,28.4 			"/>
			<polygon class="st2" points="90.1,21.7 90.1,28.4 92.5,28.4 92.5,25.3 			"/>
			<path class="st2" d="M95.6,21.5c1.1-0.2,1.9-0.8,2.6-1.6c0.7-0.8,1-1.8,1-3c0-1.5-0.5-2.7-1.6-3.6c-1-0.8-2.5-1.2-4.6-1.2h-2.9
				v2.3l3.3,0c2.3,0,3.4,0.8,3.4,2.5c0,1.8-1.2,2.7-3.5,2.7h-0.7h-0.1h-1l1.5,2.1h0l4.6,6.6h3L95.6,21.5z"/>
			<path class="st2" d="M86.7,12.2v16.2h-2.4V12.2H86.7z"/>
		</g>
	</g>
</g>
<g>
</g>
<g>
</g>
<g>
</g>
<g>
</g>
<g>
</g>
<g>
</g>
</svg>
